<?xml version="1.0" encoding="UTF-8"?>
<svg version="1.1" xmlns="http://www.w3.org/2000/svg" width="612" height="408">
<path d="M0 0 C0 8.58 0 17.16 0 26 C-3.0009375 26.37125 -3.0009375 26.37125 -6.0625 26.75 C-12.97514229 27.82446505 -17.34406193 29.19650981 -22.25 34.375 C-23.11625 35.674375 -23.11625 35.674375 -24 37 C-24.86625 38.2684375 -24.86625 38.2684375 -25.75 39.5625 C-27.83728559 45.30253538 -28.19423142 51.62710314 -26.1328125 57.44921875 C-25.45744364 58.78270253 -24.741703 60.09716166 -23.97265625 61.37890625 C-23 63 -23 63 -22 66 C-20.30230766 67.10168984 -20.30230766 67.10168984 -18 68 C-16.96875 68.515625 -15.9375 69.03125 -14.875 69.5625 C-8.35736338 72.25849468 -2.33821473 72.82631182 4.3125 70.3125 C11.50243061 66.99320496 15.1369152 63.33899903 18 56 C18.68865761 53.67306219 19.35910348 51.34054279 20 49 C23.47874757 48.80409556 26.95800904 48.61968408 30.4375 48.4375 C31.43072266 48.38142578 32.42394531 48.32535156 33.44726562 48.26757812 C34.39150391 48.21923828 35.33574219 48.17089844 36.30859375 48.12109375 C37.18314209 48.0739624 38.05769043 48.02683105 38.95874023 47.97827148 C41 48 41 48 42 49 C43.3037064 59.00220647 40.24244962 69.77358521 34.5390625 78.03125 C25.37655585 89.75181688 16.24246512 97.36361657 0.99267578 99.24804688 C-13.85113989 100.48706174 -26.16904659 96.86839685 -38.12109375 87.76953125 C-38.74113281 87.18558594 -39.36117187 86.60164063 -40 86 C-40 85.34 -40 84.68 -40 84 C-40.59683594 83.76410156 -41.19367187 83.52820313 -41.80859375 83.28515625 C-48.29557582 79.48084769 -51.14111254 69.93081879 -53 63 C-53.20496094 62.30519531 -53.40992188 61.61039063 -53.62109375 60.89453125 C-56.81488286 48.8021849 -55.35243915 36.88497923 -49.8671875 25.6875 C-43.56568817 15.00416339 -35.18896717 8.06288107 -24 3 C-22.95005859 2.51273438 -22.95005859 2.51273438 -21.87890625 2.015625 C-14.7627112 -0.83623388 -7.53766835 -0.20372077 0 0 Z " fill="#FBFCFC" transform="translate(87,141)"/>
<path d="M0 0 C0 8.58 0 17.16 0 26 C-3.0009375 26.37125 -3.0009375 26.37125 -6.0625 26.75 C-12.97514229 27.82446505 -17.34406193 29.19650981 -22.25 34.375 C-25.59027763 39.38541644 -26.99219421 42.95316524 -28 49 C-36.58 49 -45.16 49 -54 49 C-54 32.5774598 -50.06544632 23.74756288 -39 12 C-34.63182817 7.86794556 -29.43213159 5.45797809 -24 3 C-23.30003906 2.67515625 -22.60007812 2.3503125 -21.87890625 2.015625 C-14.7627112 -0.83623388 -7.53766835 -0.20372077 0 0 Z " fill="#4AD4DF" transform="translate(87,141)"/>
<path d="M0 0 C4.54478466 3.25947587 7.7725195 6.52623509 9.08203125 12.08203125 C9.93207906 17.43569773 9.6743865 21.34598739 6.9296875 26.0703125 C3.89716572 29.93613346 0.16957866 32.28852586 -4.44921875 33.828125 C-11.60874277 34.43486432 -16.48094917 33.10458972 -22.0625 28.49609375 C-26.32284843 23.75570606 -26.16780055 18.27424925 -25.93359375 12.15234375 C-25.05868297 6.14791575 -22.5872785 3.44470676 -17.88671875 -0.109375 C-12.0108272 -1.92555966 -5.70115272 -2.72782427 0 0 Z " fill="#46D4DF" transform="translate(91.44921875,174.171875)"/>
<path d="M0 0 C2 1.4375 2 1.4375 3 3 C2.9375 5 2.9375 5 2 7 C-0.0625 8.75 -0.0625 8.75 -2 10 C-4.49361571 8.79618552 -6.68143083 7.54571278 -9 6 C-12.14221967 6.31506627 -12.14221967 6.31506627 -15 7 C-15.33 7.99 -15.66 8.98 -16 10 C-15.21496094 10.15855469 -14.42992187 10.31710938 -13.62109375 10.48046875 C-6.95763861 11.96032811 -2.13511299 13.43545512 3 18 C3.92350727 20.77052181 4.16329585 22.56688758 4.1875 25.4375 C4.20167969 26.19933594 4.21585938 26.96117187 4.23046875 27.74609375 C3.87242202 31.2476694 2.72564938 33.34691555 0.125 35.6875 C-4.73699394 38.69049626 -10.45385111 38.5977885 -16 38 C-20.36099153 36.67148602 -23.28349327 35.31359567 -25.5 31.25 C-25.665 30.5075 -25.83 29.765 -26 29 C-24.3125 26.9375 -24.3125 26.9375 -22 25 C-18.89303236 25.07767419 -17.44428427 25.62737448 -15.0625 27.625 C-12.95846681 29.34139063 -12.95846681 29.34139063 -9.75 28.6875 C-8.8425 28.460625 -7.935 28.23375 -7 28 C-6.67 26.68 -6.34 25.36 -6 24 C-9.70143228 22.38062338 -13.36415296 20.86803314 -17.1875 19.5625 C-23.01314459 17.31142568 -23.01314459 17.31142568 -25 14 C-25.88465258 8.54885505 -26.03451876 4.43683161 -22.75 -0.125 C-15.7199518 -4.91821468 -7.19186616 -3.88360773 0 0 Z " fill="#FBFBFB" transform="translate(170,174)"/>
<path d="M0 0 C0.99 0 1.98 0 3 0 C3.495 2.97 3.495 2.97 4 6 C5.299375 6.12375 6.59875 6.2475 7.9375 6.375 C10.15234375 6.5859375 10.15234375 6.5859375 12 7 C13.52491998 10.04983996 13.23562548 12.6423369 13 16 C11.5 17.9375 11.5 17.9375 10 19 C12.90147316 21.4343307 12.90147316 21.4343307 16.5 20.375 C22.15019498 19.43681464 26.88106199 21.80751368 32 24 C32 24.99 32 25.98 32 27 C9.23 27 -13.54 27 -37 27 C-37 23 -37 23 -35.37109375 21.265625 C-32.40624796 19.6830714 -30.40885383 19.66560268 -27.0625 19.75 C-26.04285156 19.76546875 -25.02320313 19.7809375 -23.97265625 19.796875 C-21 20 -21 20 -18.24609375 20.640625 C-17.50488281 20.75921875 -16.76367188 20.8778125 -16 21 C-15.34 20.34 -14.68 19.68 -14 19 C-14.66 18.46375 -15.32 17.9275 -16 17.375 C-18 15 -18 15 -18.4375 11.9375 C-18 9 -18 9 -16.796875 7.328125 C-14.37105297 5.53512611 -12.79384793 5.69634359 -9.8125 5.8125 C-8.224375 5.874375 -6.63625 5.93625 -5 6 C-5 10.29 -5 14.58 -5 19 C-3.35 19 -1.7 19 0 19 C0 12.73 0 6.46 0 0 Z M5 9 C4.67 10.32 4.34 11.64 4 13 C4.99 11.68 5.98 10.36 7 9 C6.34 9 5.68 9 5 9 Z M-12 9 C-12.99 9.495 -12.99 9.495 -14 10 C-13.67 10.99 -13.34 11.98 -13 13 C-12.01 12.01 -11.02 11.02 -10 10 C-10.66 9.67 -11.32 9.34 -12 9 Z " fill="#B6FDFC" transform="translate(552,185)"/>
<path d="M0 0 C1.28583984 0.00966797 1.28583984 0.00966797 2.59765625 0.01953125 C4.9375 0.1875 4.9375 0.1875 7.9375 1.1875 C8.55625 1.0225 9.175 0.8575 9.8125 0.6875 C12.45228627 0.06637382 14.31748549 0.59950994 16.9375 1.1875 C17.6692814 8.0871532 18.04377404 14.9401526 18.0625 21.875 C18.06701172 22.58205078 18.07152344 23.28910156 18.07617188 24.01757812 C18.06134501 29.06365499 18.06134501 29.06365499 16.9375 30.1875 C15.45995384 30.25978699 13.97916002 30.2712999 12.5 30.25 C11.69691406 30.24097656 10.89382813 30.23195312 10.06640625 30.22265625 C9.01259766 30.20525391 9.01259766 30.20525391 7.9375 30.1875 C6.39992482 30.1875 4.86222319 30.25993631 3.328125 30.36328125 C-6.19372333 30.77778957 -6.19372333 30.77778957 -9.6875 27.875 C-14.52944413 22.39595795 -14.54496845 18.72687887 -14.44921875 11.58984375 C-13.90055796 6.7627372 -12.77913451 5.22838278 -9.0625 2.1875 C-5.94074239 0.28815695 -3.63626458 -0.06033018 0 0 Z M-4.0625 11.1875 C-5.15866096 13.49944193 -5.15866096 13.49944193 -5.0625 16.1875 C-2.94638365 19.51282569 -1.83519733 20.92993422 1.9375 22.1875 C5.19954729 21.00130099 5.93795871 20.18681194 7.9375 17.1875 C7.85528291 14.11084973 7.85528291 14.11084973 6.9375 11.1875 C2.60984018 8.30239345 0.26515982 8.30239345 -4.0625 11.1875 Z " fill="#59D5DE" transform="translate(339.0625,181.8125)"/>
<path d="M0 0 C1.14814997 2.29629994 1.30769809 4.07698086 1.5625 6.625 C1.64628906 7.44226563 1.73007813 8.25953125 1.81640625 9.1015625 C1.87699219 9.72804687 1.93757812 10.35453125 2 11 C2.33 10.67 2.66 10.34 3 10 C7.61818254 9.40692814 11.17661152 9.62573251 15.4375 11.5625 C19.63100971 15.55144826 19.91078473 18.88535694 20.14453125 24.42578125 C20.26444218 34.9234384 20.26444218 34.9234384 19 39 C16.1875 39.6875 16.1875 39.6875 13 40 C10.98023211 38.51024003 10.12785526 37.56217328 9.56762695 35.09887695 C9.54144287 34.40238037 9.51525879 33.70588379 9.48828125 32.98828125 C9.43510742 31.85229492 9.43510742 31.85229492 9.38085938 30.69335938 C9.35830078 29.90767578 9.33574219 29.12199219 9.3125 28.3125 C9.27833984 27.51521484 9.24417969 26.71792969 9.20898438 25.89648438 C9.12661896 23.93148096 9.06162933 21.96576304 9 20 C7.15274948 19.30840599 7.15274948 19.30840599 5 19 C1.68539295 20.70892499 1.68539295 20.70892499 1.3125 24.125 C1.08980727 26.88638987 0.97457363 29.49378112 1 32.25 C1 36 1 36 0 39 C-2.8125 39.6875 -2.8125 39.6875 -6 40 C-8.13210103 38.47275032 -8.8867536 37.43680755 -9.546875 34.890625 C-11.66666667 7.33333333 -11.66666667 7.33333333 -8 0 C-4.69693408 -1.10102197 -3.28414305 -0.95067299 0 0 Z " fill="#FCFCFC" transform="translate(186,172)"/>
<path d="M0 0 C1.98 0 3.96 0 6 0 C8.60018816 3.90028225 8.15085514 7.47434569 8 12 C8.66 11.67 9.32 11.34 10 11 C14.28819956 10.56191282 17.94422448 10.55073382 21.9375 12.25 C25.40113254 15.18883973 25.92948963 17.38257441 26.44921875 21.93359375 C26.53781159 23.43438285 26.61696538 24.93575386 26.6875 26.4375 C26.73455078 27.18837891 26.78160156 27.93925781 26.83007812 28.71289062 C27.04169841 32.65735403 27.02036262 36.14103462 26 40 C22.625 40.625 22.625 40.625 19 41 C16.18362964 38.18362964 16.58327873 35.34208032 16.4375 31.5625 C16.22565057 26.20590735 16.22565057 26.20590735 15 21 C13.08333333 20.16666667 13.08333333 20.16666667 11 20 C10.34 20.33 9.68 20.66 9 21 C7.48944265 25.53167206 8.03667588 30.00835361 8.16015625 34.75 C8 38 8 38 6 41 C3.69 40.67 1.38 40.34 -1 40 C-2.73762214 34.45260883 -2.18595789 28.48379225 -2.18530273 22.72827148 C-2.18748914 20.57320401 -2.20566506 18.4186489 -2.22460938 16.26367188 C-2.22754381 14.88541841 -2.22952827 13.50716252 -2.23046875 12.12890625 C-2.23457764 10.88181885 -2.23868652 9.63473145 -2.24291992 8.34985352 C-2.00866447 5.11948267 -1.3911497 2.89980796 0 0 Z " fill="#FBFBFB" transform="translate(479,171)"/>
<path d="M0 0 C0.19335938 0.61488281 0.38671875 1.22976562 0.5859375 1.86328125 C0.84632813 2.67152344 1.10671875 3.47976562 1.375 4.3125 C1.63023437 5.11300781 1.88546875 5.91351563 2.1484375 6.73828125 C2.98831811 9.22724528 2.98831811 9.22724528 5 12 C5.18175781 11.31292969 5.36351562 10.62585938 5.55078125 9.91796875 C5.80214844 9.01691406 6.05351562 8.11585938 6.3125 7.1875 C6.55613281 6.29417969 6.79976563 5.40085938 7.05078125 4.48046875 C8.04654901 1.87835959 8.74454237 0.61712057 11 -1 C13.72507798 -1.39078556 16.23121956 -1.13616953 19 -1 C20.27087584 2.81262753 19.49310856 3.99999456 18.05078125 7.69921875 C17.61443359 8.82650391 17.17808594 9.95378906 16.72851562 11.11523438 C16.26123047 12.29408203 15.79394531 13.47292969 15.3125 14.6875 C14.64057617 16.42676758 14.64057617 16.42676758 13.95507812 18.20117188 C7.50954825 34.70435535 7.50954825 34.70435535 4.0703125 37.65625 C-0.09525418 39.46300181 -3.35696346 40.56622397 -8 40 C-9 39 -9 39 -9.09765625 37.15234375 C-9.06510417 35.1015625 -9.03255208 33.05078125 -9 31 C-6.69 30.34 -4.38 29.68 -2 29 C-2.60797977 23.16146415 -4.81570379 18.17143881 -7.0625 12.8125 C-7.80814446 11.02932632 -8.54924517 9.24424386 -9.28515625 7.45703125 C-9.61394775 6.67303955 -9.94273926 5.88904785 -10.28149414 5.08129883 C-11 3 -11 3 -11 0 C-6.94952424 -1.35015859 -4.2079832 -0.62084998 0 0 Z " fill="#53D4DE" transform="translate(369,183)"/>
<path d="M0 0 C3.32356065 2.45310429 5.29748956 5.06177986 6.625 8.9375 C6.92489418 11.70426563 6.8211867 14.14183949 6.625 16.9375 C5.965 16.9375 5.305 16.9375 4.625 16.9375 C4.955 17.9275 5.285 18.9175 5.625 19.9375 C5.625 22.375 5.625 22.375 4.625 24.9375 C-0.04333434 28.61257172 -3.95021312 29.63346482 -9.87109375 29.3984375 C-14.00990093 28.6365354 -17.22209414 26.68083721 -20.375 23.9375 C-23.66035488 19.00946768 -23.83554731 13.37840073 -22.75 7.625 C-17.98815626 -1.68224003 -9.34239389 -2.941124 0 0 Z M-11.375 6.9375 C-12.035 8.2575 -12.695 9.5775 -13.375 10.9375 C-10.075 10.9375 -6.775 10.9375 -3.375 10.9375 C-4.035 9.6175 -4.695 8.2975 -5.375 6.9375 C-7.355 6.9375 -9.335 6.9375 -11.375 6.9375 Z M-13.375 16.9375 C-12.715 17.5975 -12.055 18.2575 -11.375 18.9375 C-7.77820934 18.61423447 -7.77820934 18.61423447 -4.375 17.9375 C-4.375 18.5975 -4.375 19.2575 -4.375 19.9375 C-2.395 19.2775 -0.415 18.6175 1.625 17.9375 C1.625 17.6075 1.625 17.2775 1.625 16.9375 C-3.325 16.9375 -8.275 16.9375 -13.375 16.9375 Z " fill="#FBFBFB" transform="translate(437.375,183.0625)"/>
<path d="M0 0 C3.30680126 3.56117059 4.22762474 6.13144506 4.25 10.875 C4.18641991 12.25105487 4.10985087 13.62686409 4 15 C3.01 15 2.02 15 1 15 C1.33 17.64 1.66 20.28 2 23 C1.34 23 0.68 23 0 23 C0 23.66 0 24.32 0 25 C-4.79279592 27.55615782 -9.71091578 27.77969783 -15 27 C-19.41288566 25.2690196 -22.25831695 23.04299179 -25 19.1875 C-26.78128369 13.50965822 -26.71784523 8.43569046 -24 3 C-23.34 3 -22.68 3 -22 3 C-21.773125 2.38125 -21.54625 1.7625 -21.3125 1.125 C-16.862359 -6.07999019 -6.05203638 -3.49155945 0 0 Z M-14.25 5.9375 C-15.11625 6.9584375 -15.11625 6.9584375 -16 8 C-12.37 8 -8.74 8 -5 8 C-9.32838959 3.50134151 -9.32838959 3.50134151 -14.25 5.9375 Z M-16 15 C-16 15.66 -16 16.32 -16 17 C-12.77208445 19.1519437 -11.71599191 19.20086443 -8 19 C-8.33 17.68 -8.66 16.36 -9 15 C-11.31 15 -13.62 15 -16 15 Z " fill="#FCFBFC" transform="translate(287,185)"/>
<path d="M0 0 C4.49322252 2.45855572 6.6968496 4.96554879 8.3125 9.8125 C8.35204234 12.14549825 8.35651732 14.47958189 8.3125 16.8125 C6.9925 16.8125 5.6725 16.8125 4.3125 16.8125 C4.6425 19.4525 4.9725 22.0925 5.3125 24.8125 C0.88408935 28.54168791 -2.36012762 29.45740373 -8.15234375 29.1953125 C-13.48611038 28.38990552 -17.30727755 26.53777806 -20.6875 22.3125 C-22.19086935 17.05070728 -22.84235286 12.21143713 -21.6875 6.8125 C-16.16990421 -0.69756094 -8.85125553 -2.85040432 0 0 Z M-10.6875 6.8125 C-11.0175 7.8025 -11.3475 8.7925 -11.6875 9.8125 C-8.3875 10.1425 -5.0875 10.4725 -1.6875 10.8125 C-2.3475 9.4925 -3.0075 8.1725 -3.6875 6.8125 C-5.9975 6.8125 -8.3075 6.8125 -10.6875 6.8125 Z M-11.6875 16.8125 C-11.3575 17.8025 -11.0275 18.7925 -10.6875 19.8125 C-7.7175 20.3075 -7.7175 20.3075 -4.6875 20.8125 C-5.0175 19.4925 -5.3475 18.1725 -5.6875 16.8125 C-7.6675 16.8125 -9.6475 16.8125 -11.6875 16.8125 Z " fill="#FBFBFB" transform="translate(250.6875,183.1875)"/>
<path d="M0 0 C0.721875 0.00257813 1.44375 0.00515625 2.1875 0.0078125 C2.909375 0.00523437 3.63125 0.00265625 4.375 0 C6.1875 0.1328125 6.1875 0.1328125 7.1875 1.1328125 C7.40658542 5.63860803 7.37329 10.14981343 7.37280273 14.66040039 C7.37498093 16.92548639 7.39310895 19.19007894 7.41210938 21.45507812 C7.41504492 22.89583167 7.41702864 24.33658752 7.41796875 25.77734375 C7.42207764 27.09065674 7.42618652 28.40396973 7.43041992 29.75708008 C7.09971729 34.3526834 6.13873786 36.20728377 2.875 39.3828125 C-2.0822932 42.44754303 -8.25226462 41.96753766 -13.8125 41.1328125 C-16.72952608 39.75981488 -18.42215212 38.35639192 -20.8125 36.1328125 C-20.5 33.7578125 -20.5 33.7578125 -19.8125 31.1328125 C-16.8125 29.1328125 -16.8125 29.1328125 -14.5 29.4453125 C-13.613125 29.6721875 -12.72625 29.8990625 -11.8125 30.1328125 C-8.70410979 30.8597351 -8.70410979 30.8597351 -5.8125 31.1328125 C-3.06034678 28.38065928 -3.51703744 26.69813993 -3.43359375 22.84765625 C-3.39943359 21.59533203 -3.36527344 20.34300781 -3.33007812 19.05273438 C-3.30365234 17.73853516 -3.27722656 16.42433594 -3.25 15.0703125 C-3.19035594 12.47516152 -3.12677612 9.88009694 -3.05859375 7.28515625 C-3.03466553 6.13007568 -3.0107373 4.97499512 -2.98608398 3.78491211 C-2.75155218 0.20162236 -2.75155218 0.20162236 0 0 Z " fill="#46D3DD" transform="translate(314.8125,170.8671875)"/>
<path d="M0 0 C0.33 2.31 0.66 4.62 1 7 C-3.02933725 9.57877584 -4.51534435 9 -10 9 C-10.33 18.9 -10.66 28.8 -11 39 C-13.64 39.33 -16.28 39.66 -19 40 C-20.40701145 37.18597709 -20.09403729 34.85784107 -20.0625 31.71484375 C-20.05476563 30.46251953 -20.04703125 29.21019531 -20.0390625 27.91992188 C-20.01972656 25.94862305 -20.01972656 25.94862305 -20 23.9375 C-19.97462091 21.34248839 -19.95354381 18.74742986 -19.9375 16.15234375 C-19.92589844 14.99726318 -19.91429687 13.84218262 -19.90234375 12.65209961 C-19.69590845 10.07722213 -19.69590845 10.07722213 -21 9 C-23.03005482 9 -25.06064427 9.00357588 -27.08984375 9.0625 C-29 9 -29 9 -31 8 C-31 5.36 -31 2.72 -31 0 C-27.06756732 -0.16783149 -23.13491104 -0.32836761 -19.2019043 -0.48217773 C-17.2067109 -0.56173399 -15.21174989 -0.64705005 -13.21679688 -0.73242188 C-11.96318359 -0.78076172 -10.70957031 -0.82910156 -9.41796875 -0.87890625 C-7.68196411 -0.94960327 -7.68196411 -0.94960327 -5.91088867 -1.02172852 C-3 -1 -3 -1 0 0 Z " fill="#FCFBFC" transform="translate(419,172)"/>
<path d="M0 0 C2.76622318 1.14005433 4.8061906 2.27103435 6.9296875 4.39453125 C6.5546875 7.01953125 6.5546875 7.01953125 5.9296875 9.39453125 C-0.8203125 10.51953125 -0.8203125 10.51953125 -3.0703125 9.39453125 C-6.0703125 9.14453125 -6.0703125 9.14453125 -9.0703125 9.39453125 C-9.7303125 10.05453125 -10.3903125 10.71453125 -11.0703125 11.39453125 C-10.98287559 14.92348073 -10.98287559 14.92348073 -10.0703125 18.39453125 C-7.31135615 20.69090904 -7.31135615 20.69090904 -4.5078125 20.14453125 C-1.92030683 19.55645073 -1.92030683 19.55645073 -0.0703125 17.39453125 C2.5546875 17.26953125 2.5546875 17.26953125 4.9296875 17.39453125 C6.18953748 19.46957827 6.91576945 20.94915362 6.9921875 23.39453125 C5.21791501 26.73433829 2.35035982 28.13495658 -1.0703125 29.39453125 C-6.05986417 30.3674492 -9.99515226 29.7979916 -14.4453125 27.33203125 C-18.27604331 24.62304831 -19.80849966 21.96860281 -21.0703125 17.39453125 C-21.46224428 12.84812256 -21.25257121 9.43170987 -19.0703125 5.39453125 C-13.87176884 -0.67043635 -7.67278657 -2.24392815 0 0 Z " fill="#FAFAFA" transform="translate(467.0703125,182.60546875)"/>
<path d="M0 0 C3.62253998 0.56824157 6.58602905 0.06493662 10.1875 -0.5 C11.1875 0.5 11.1875 0.5 11.25 4.0625 C11.229375 5.196875 11.20875 6.33125 11.1875 7.5 C10.053125 7.95375 8.91875 8.4075 7.75 8.875 C4.14028308 10.07095806 4.14028308 10.07095806 3.1875 12.5 C2.92384236 15.72614424 2.7431966 18.94547376 2.58203125 22.17773438 C2.28829169 27.39920831 2.28829169 27.39920831 1.1875 28.5 C-1.48308851 28.64115161 -4.13682238 28.54247107 -6.8125 28.5 C-7.72292911 25.39079871 -7.94120382 22.60189103 -7.9453125 19.3671875 C-7.94660156 18.39652344 -7.94789063 17.42585938 -7.94921875 16.42578125 C-7.94535156 15.41902344 -7.94148437 14.41226563 -7.9375 13.375 C-7.94136719 12.36050781 -7.94523438 11.34601563 -7.94921875 10.30078125 C-7.94792969 9.33269531 -7.94664062 8.36460937 -7.9453125 7.3671875 C-7.94418457 6.48144043 -7.94305664 5.59569336 -7.94189453 4.68310547 C-7.8125 2.5 -7.8125 2.5 -6.8125 0.5 C-4.24664121 -0.54534988 -2.75140687 -0.489139 0 0 Z " fill="#FBFBFB" transform="translate(216.8125,182.5)"/>
<path d="M0 0 C4.54478466 3.25947587 7.7725195 6.52623509 9.08203125 12.08203125 C9.93207906 17.43569773 9.6743865 21.34598739 6.9296875 26.0703125 C3.89716572 29.93613346 0.16957866 32.28852586 -4.44921875 33.828125 C-11.60874277 34.43486432 -16.48094917 33.10458972 -22.0625 28.49609375 C-26.32284843 23.75570606 -26.16780055 18.27424925 -25.93359375 12.15234375 C-25.05868297 6.14791575 -22.5872785 3.44470676 -17.88671875 -0.109375 C-12.0108272 -1.92555966 -5.70115272 -2.72782427 0 0 Z M-17.38671875 4.703125 C-19.71476377 6.66873246 -19.71476377 6.66873246 -19.76171875 9.578125 C-19.65859375 10.320625 -19.55546875 11.063125 -19.44921875 11.828125 C-18.78921875 11.828125 -18.12921875 11.828125 -17.44921875 11.828125 C-17.44921875 14.468125 -17.44921875 17.108125 -17.44921875 19.828125 C-16.78921875 19.828125 -16.12921875 19.828125 -15.44921875 19.828125 C-15.44921875 20.488125 -15.44921875 21.148125 -15.44921875 21.828125 C-16.10921875 21.828125 -16.76921875 21.828125 -17.44921875 21.828125 C-17.57296875 22.446875 -17.69671875 23.065625 -17.82421875 23.703125 C-18.44921875 25.828125 -18.44921875 25.828125 -20.44921875 27.828125 C-19.12921875 27.828125 -17.80921875 27.828125 -16.44921875 27.828125 C-16.44921875 28.488125 -16.44921875 29.148125 -16.44921875 29.828125 C-12.14127316 31.98209779 -7.10498517 31.3540203 -2.6328125 29.93359375 C-0.20624342 28.956753 2.18149252 27.93610136 4.55078125 26.828125 C4.55078125 25.838125 4.55078125 24.848125 4.55078125 23.828125 C5.21078125 23.828125 5.87078125 23.828125 6.55078125 23.828125 C8.14238975 20.34648141 9.04256485 17.66403709 8.55078125 13.828125 C7.59779348 12.46079472 6.59703534 11.12548007 5.55078125 9.828125 C5.30328125 8.7453125 5.30328125 8.7453125 5.05078125 7.640625 C4.80328125 6.7434375 4.80328125 6.7434375 4.55078125 5.828125 C3.56078125 5.498125 2.57078125 5.168125 1.55078125 4.828125 C1.11765625 4.35375 0.68453125 3.879375 0.23828125 3.390625 C-5.89660847 -2.28982844 -11.20454686 0.75705784 -17.38671875 4.703125 Z " fill="#61D6DE" transform="translate(91.44921875,174.171875)"/>
<path d="M0 0 C22.77 0 45.54 0 69 0 C69 1.32 69 2.64 69 4 C46.23 4 23.46 4 0 4 C0 2.68 0 1.36 0 0 Z " fill="#99E5E7" transform="translate(515,177)"/>
<path d="M0 0 C0.33 0 0.66 0 1 0 C1 10.23 1 20.46 1 31 C0.01 31.33 -0.98 31.66 -2 32 C-2 33.32 -2 34.64 -2 36 C1.465 36.495 1.465 36.495 5 37 C3.14696745 39.4533107 2.19987178 39.96758836 -0.890625 40.46875 C-8.33730872 40.53802148 -12.47742868 40.13727565 -18 35 C-17.6875 32.625 -17.6875 32.625 -17 30 C-14 28 -14 28 -11.6875 28.3125 C-10.800625 28.539375 -9.91375 28.76625 -9 29 C-5.89160979 29.7269226 -5.89160979 29.7269226 -3 30 C-0.24560484 27.24560484 -0.69010724 25.53396797 -0.5859375 21.6796875 C-0.54726563 20.42285156 -0.50859375 19.16601562 -0.46875 17.87109375 C-0.4378125 16.55238281 -0.406875 15.23367187 -0.375 13.875 C-0.33681971 12.53513082 -0.29776794 11.19528617 -0.2578125 9.85546875 C-0.1632797 6.57045381 -0.07772844 3.28544862 0 0 Z " fill="#71D8DE" transform="translate(312,172)"/>
<path d="M0 0 C22.11 0 44.22 0 67 0 C67 0.99 67 1.98 67 3 C59.01983191 3.02321255 51.03967803 3.04096044 43.05948448 3.05181217 C39.353609 3.05702153 35.64775668 3.0640837 31.94189453 3.07543945 C28.36277668 3.08633768 24.78368105 3.0922915 21.20454788 3.09487724 C19.84187088 3.09671902 18.47919504 3.10031549 17.11652756 3.10573006 C15.2018834 3.11303249 13.28721667 3.11340884 11.37255859 3.11352539 C9.74040909 3.11685631 9.74040909 3.11685631 8.07528687 3.12025452 C4.97296606 2.99894288 2.0476571 2.57739005 -1 2 C-0.67 1.34 -0.34 0.68 0 0 Z " fill="#92E1E2" transform="translate(517,209)"/>
<path d="M0 0 C3.6875 0.3125 3.6875 0.3125 7 1 C7.7317814 7.8996532 8.10627404 14.7526526 8.125 21.6875 C8.12951172 22.39455078 8.13402344 23.10160156 8.13867188 23.83007812 C8.12384501 28.87615499 8.12384501 28.87615499 7 30 C5.48071962 30.07179964 3.95832518 30.08392007 2.4375 30.0625 C1.61121094 30.05347656 0.78492188 30.04445312 -0.06640625 30.03515625 C-1.02353516 30.01775391 -1.02353516 30.01775391 -2 30 C-2.33 28.35 -2.66 26.7 -3 25 C-1.68 25 -0.36 25 1 25 C0.814375 24.05125 0.62875 23.1025 0.4375 22.125 C0 19 0 19 1 17 C0.34 17 -0.32 17 -1 17 C-1.33 18.32 -1.66 19.64 -2 21 C-3.98 21.33 -5.96 21.66 -8 22 C-7.154375 21.29875 -6.30875 20.5975 -5.4375 19.875 C-2.60690249 17.20542015 -2.60690249 17.20542015 -3.1875 13.6875 C-3.455625 12.800625 -3.72375 11.91375 -4 11 C-6.31 10.34 -8.62 9.68 -11 9 C-11 8.67 -11 8.34 -11 8 C-8.36 7.67 -5.72 7.34 -3 7 C-1.35 9.97 0.3 12.94 2 16 C2.99 15.34 3.98 14.68 5 14 C5.58481121 11.11404054 5.58481121 11.11404054 5.6875 7.875 C5.75324219 6.77929688 5.81898438 5.68359375 5.88671875 4.5546875 C5.92410156 3.71164063 5.96148437 2.86859375 6 2 C1.545 2.495 1.545 2.495 -3 3 C-2.01 2.01 -1.02 1.02 0 0 Z " fill="#6CD9E1" transform="translate(349,182)"/>
<path d="M0 0 C0.99 0 1.98 0 3 0 C3.33 1.98 3.66 3.96 4 6 C5.299375 6.12375 6.59875 6.2475 7.9375 6.375 C10.15234375 6.5859375 10.15234375 6.5859375 12 7 C13.55024464 10.10048928 13.28992015 12.57894218 13 16 C11.125 18.9375 11.125 18.9375 9 21 C8.34 21 7.68 21 7 21 C7 20.34 7 19.68 7 19 C4.69 19 2.38 19 0 19 C0 12.73 0 6.46 0 0 Z M5 9 C4.67 10.32 4.34 11.64 4 13 C4.99 11.68 5.98 10.36 7 9 C6.34 9 5.68 9 5 9 Z " fill="#77D8E0" transform="translate(552,185)"/>
<path d="M0 0 C2.3821875 0.0928125 2.3821875 0.0928125 4.8125 0.1875 C4.8125 4.4775 4.8125 8.7675 4.8125 13.1875 C3.4925 12.8575 2.1725 12.5275 0.8125 12.1875 C-0.38375 12.22875 -1.58 12.27 -2.8125 12.3125 C-3.92625 12.27125 -5.04 12.23 -6.1875 12.1875 C-8.50032587 8.71826119 -8.61228586 7.26544425 -8.1875 3.1875 C-5.84491031 -0.09671889 -3.89328556 -0.15168645 0 0 Z M-2.1875 3.1875 C-3.1775 3.6825 -3.1775 3.6825 -4.1875 4.1875 C-3.8575 5.1775 -3.5275 6.1675 -3.1875 7.1875 C-2.1975 6.1975 -1.2075 5.2075 -0.1875 4.1875 C-0.8475 3.8575 -1.5075 3.5275 -2.1875 3.1875 Z " fill="#91DCE0" transform="translate(542.1875,190.8125)"/>
<path d="M0 0 C1.093125 0.103125 2.18625 0.20625 3.3125 0.3125 C5.11869523 4.77486469 5.42908501 7.62284294 4.3125 12.3125 C-0.40349818 13.23720553 -3.36015609 13.54173777 -7.6875 11.3125 C-7.6875 10.6525 -7.6875 9.9925 -7.6875 9.3125 C-7.0275 9.3125 -6.3675 9.3125 -5.6875 9.3125 C-5.914375 8.755625 -6.14125 8.19875 -6.375 7.625 C-6.6875 5.3125 -6.6875 5.3125 -5.6875 2.5625 C-3.6875 0.3125 -3.6875 0.3125 0 0 Z M-4.6875 7.3125 C-4.0275 7.9725 -3.3675 8.6325 -2.6875 9.3125 C-1.6975 8.9825 -0.7075 8.6525 0.3125 8.3125 C-1.3375 7.9825 -2.9875 7.6525 -4.6875 7.3125 Z " fill="#89DCE2" transform="translate(573.6875,190.6875)"/>
<path d="M0 0 C0.33 0.66 0.66 1.32 1 2 C2.65 2 4.3 2 6 2 C6 2.99 6 3.98 6 5 C-9.345 5.495 -9.345 5.495 -25 6 C-23.35 6.33 -21.7 6.66 -20 7 C-20 7.33 -20 7.66 -20 8 C-22.31 8 -24.62 8 -27 8 C-27 4 -27 4 -25.37109375 2.265625 C-22.40624796 0.6830714 -20.40885383 0.66560268 -17.0625 0.75 C-16.04285156 0.76546875 -15.02320313 0.7809375 -13.97265625 0.796875 C-11 1 -11 1 -8.328125 1.57421875 C-5.13441149 2.15830394 -2.96943144 1.17396127 0 0 Z " fill="#BBFCFE" transform="translate(542,204)"/>
<path d="M0 0 C0.99 0.66 1.98 1.32 3 2 C-3 6 -3 6 -7 6 C-6.67 9.96 -6.34 13.92 -6 18 C-7.32 17.01 -8.64 16.02 -10 15 C-10.99 15.495 -10.99 15.495 -12 16 C-13.4783226 13.04335481 -13.06032783 10.25770263 -13 7 C-12.34 7 -11.68 7 -11 7 C-11 5.68 -11 4.36 -11 3 C-8.66903113 -1.07919552 -4.18023516 -0.6489478 0 0 Z " fill="#48D6E1" transform="translate(340,184)"/>
<path d="M0 0 C1.32 0 2.64 0 4 0 C4 4.62 4 9.24 4 14 C5.32 13.67 6.64 13.34 8 13 C10.25 13.4375 10.25 13.4375 12 14 C11.67 15.32 11.34 16.64 11 18 C9.35425434 18.02688151 7.70838587 18.04634123 6.0625 18.0625 C5.14597656 18.07410156 4.22945312 18.08570313 3.28515625 18.09765625 C1 18 1 18 0 17 C-0.07325168 14.13732433 -0.09238205 11.299281 -0.0625 8.4375 C-0.05798828 7.63119141 -0.05347656 6.82488281 -0.04882812 5.99414062 C-0.03700518 3.99606244 -0.01906914 1.99802217 0 0 Z " fill="#7AD9E2" transform="translate(520,186)"/>
<path d="M0 0 C3.6875 -0.3125 3.6875 -0.3125 7 0 C7.10807131 1.93627769 7.1856225 3.87427756 7.25 5.8125 C7.29640625 6.89144531 7.3428125 7.97039062 7.390625 9.08203125 C7.26171875 10.04496094 7.1328125 11.00789062 7 12 C5.68 12.99 4.36 13.98 3 15 C1.02 11.7 -0.96 8.4 -3 5 C-2.01 3.35 -1.02 1.7 0 0 Z " fill="#48D5E0" transform="translate(348,184)"/>
<path d="M0 0 C0.33 0 0.66 0 1 0 C1.31717639 6.8192923 0.10917726 13.27561284 -1 20 C6.59 20 14.18 20 22 20 C22.33 16.37 22.66 12.74 23 9 C23.66 8.01 24.32 7.02 25 6 C25.66 6.33 26.32 6.66 27 7 C26.566875 7.9590625 26.566875 7.9590625 26.125 8.9375 C24.69277544 12.83633354 23.90103653 16.94533561 23 21 C14.42 21 5.84 21 -3 21 C-3 7.07142857 -3 7.07142857 0 0 Z " fill="#65D1D9" transform="translate(36,169)"/>
<path d="M0 0 C0.99 0.33 1.98 0.66 3 1 C3.04241723 3.33294775 3.04092937 5.66702567 3 8 C2 9 2 9 -0.50390625 9.09765625 C-2.01791016 9.08025391 -2.01791016 9.08025391 -3.5625 9.0625 C-4.57441406 9.05347656 -5.58632813 9.04445312 -6.62890625 9.03515625 C-7.41136719 9.02355469 -8.19382812 9.01195312 -9 9 C-9 7.02 -9 5.04 -9 3 C-6.36 3 -3.72 3 -1 3 C-0.67 2.01 -0.34 1.02 0 0 Z " fill="#61D3DE" transform="translate(562,193)"/>
<path d="M0 0 C0.66 0 1.32 0 2 0 C2.33 2.64 2.66 5.28 3 8 C-0.4352048 10.29013653 -1.985331 10.17842973 -6 10 C-6 10.66 -6 11.32 -6 12 C-7.32 12 -8.64 12 -10 12 C-9.125 7.125 -9.125 7.125 -8 6 C-6.33382885 5.95936168 -4.66611905 5.957279 -3 6 C-3 5.34 -3 4.68 -3 4 C-2.34 3.67 -1.68 3.34 -1 3 C-0.67 2.01 -0.34 1.02 0 0 Z " fill="#47D5E0" transform="translate(348,199)"/>
<path d="M0 0 C1.98 0 3.96 0 6 0 C7.60355101 3.50776784 8.22036864 6.14354879 8 10 C6.125 11.0625 6.125 11.0625 4 12 C3.34 11.67 2.68 11.34 2 11 C2 9.35 2 7.7 2 6 C1.34 6 0.68 6 0 6 C0 4.02 0 2.04 0 0 Z " fill="#48D6E0" transform="translate(361,184)"/>
<path d="M0 0 C1.98 0 3.96 0 6 0 C6 3.96 6 7.92 6 12 C5.01 11.67 4.02 11.34 3 11 C1.33378384 10.96125079 -0.33394172 10.9549714 -2 11 C-2 10.34 -2 9.68 -2 9 C-2.66 9 -3.32 9 -4 9 C-4 6.36 -4 3.72 -4 1 C-3.34 1 -2.68 1 -2 1 C-2 3.31 -2 5.62 -2 8 C-0.35 7.34 1.3 6.68 3 6 C2.42655063 3.13275314 2.1385485 2.1385485 0 0 Z " fill="#59D2D8" transform="translate(540,192)"/>
<path d="M0 0 C-0.33 0.66 -0.66 1.32 -1 2 C-3.31 1.67 -5.62 1.34 -8 1 C-8 2.98 -8 4.96 -8 7 C-7.34 7 -6.68 7 -6 7 C-5.10846039 9.09721231 -4.23721781 11.20306339 -3.375 13.3125 C-2.88773437 14.48425781 -2.40046875 15.65601563 -1.8984375 16.86328125 C-1.60195313 17.89839844 -1.30546875 18.93351562 -1 20 C-1.66 20.99 -2.32 21.98 -3 23 C-4.3417678 19.73256344 -5.67194359 16.46053092 -7 13.1875 C-7.3815625 12.25873047 -7.763125 11.32996094 -8.15625 10.37304688 C-8.5171875 9.48037109 -8.878125 8.58769531 -9.25 7.66796875 C-9.58515625 6.84578857 -9.9203125 6.0236084 -10.265625 5.17651367 C-11 3 -11 3 -11 0 C-6.94952424 -1.35015859 -4.2079832 -0.62084998 0 0 Z " fill="#83D9E1" transform="translate(369,183)"/>
<path d="M0 0 C0.66 0.99 1.32 1.98 2 3 C1.01 3.33 0.02 3.66 -1 4 C-0.67 2.68 -0.34 1.36 0 0 Z M-1 4 C-1 6.31 -1 8.62 -1 11 C-3.64 11 -6.28 11 -9 11 C-9 9.02 -9 7.04 -9 5 C-6.07175348 4.02391783 -4.04386724 3.91773332 -1 4 Z " fill="#49D1DB" transform="translate(370,210)"/>
<path d="M0 0 C-0.33 0.99 -0.66 1.98 -1 3 C-1.66 3 -2.32 3 -3 3 C-3 4.32 -3 5.64 -3 7 C-3.99 7 -4.98 7 -6 7 C-5.88652381 8.97986082 -5.7589065 10.95891598 -5.625 12.9375 C-5.55539062 14.03964844 -5.48578125 15.14179688 -5.4140625 16.27734375 C-5.27742188 17.17582031 -5.14078125 18.07429688 -5 19 C-4.34 19.33 -3.68 19.66 -3 20 C-3 20.99 -3 21.98 -3 23 C-2.360625 23.103125 -1.72125 23.20625 -1.0625 23.3125 C-0.381875 23.539375 0.29875 23.76625 1 24 C1.33 24.99 1.66 25.98 2 27 C2.66 27.33 3.32 27.66 4 28 C0.11397015 27.42429187 -2.11172864 25.58424279 -5 23 C-8.39088214 17.91367679 -7.68612341 11.93055187 -7 6 C-5.54316982 2.87512633 -3.77270107 0 0 0 Z " fill="#82D4DC" transform="translate(332,184)"/>
<path d="M0 0 C3 3 3 3 3.29296875 5.26171875 C3.25816406 6.06222656 3.22335937 6.86273438 3.1875 7.6875 C3.16042969 8.49574219 3.13335937 9.30398437 3.10546875 10.13671875 C3.07066406 10.75160156 3.03585937 11.36648437 3 12 C2.01 12 1.02 12 0 12 C0.33 14.31 0.66 16.62 1 19 C0.443125 18.505 -0.11375 18.01 -0.6875 17.5 C-3.38162983 15.75245633 -4.85375007 15.73781251 -8 16 C-7.67 14.68 -7.34 13.36 -7 12 C-7.99 11.67 -8.98 11.34 -10 11 C-6.04 11 -2.08 11 2 11 C1.34 7.37 0.68 3.74 0 0 Z " fill="#F1F1F5" transform="translate(288,188)"/>
<path d="M0 0 C6.15234375 -0.09765625 6.15234375 -0.09765625 8 0 C10.70715134 2.70715134 9.23009594 10.61711065 9.24023438 14.52758789 C9.24991605 16.79285734 9.28091409 19.0572103 9.3125 21.32226562 C9.31903233 22.76301544 9.3242819 24.20377175 9.328125 25.64453125 C9.34214355 27.61450073 9.34214355 27.61450073 9.35644531 29.62426758 C8.98618059 33.13087737 8.40491584 34.49626831 6 37 C6.24556641 35.69869141 6.24556641 35.69869141 6.49609375 34.37109375 C7.3620745 28.30922852 7.10413803 22.17047816 7.0625 16.0625 C7.05798828 14.80630859 7.05347656 13.55011719 7.04882812 12.25585938 C7.03709681 9.17052337 7.020681 6.08528684 7 3 C4.69 2.34 2.38 1.68 0 1 C0 0.67 0 0.34 0 0 Z " fill="#6FCDD9" transform="translate(313,171)"/>
<path d="M0 0 C3.12290635 0.48578543 5.99580359 0.9986012 9 2 C9 3.65 9 5.3 9 7 C3.60155422 6.65171318 3.60155422 6.65171318 1 6 C-0.5625 4.0625 -0.5625 4.0625 -1 2 C-0.67 1.34 -0.34 0.68 0 0 Z " fill="#47D4E0" transform="translate(297,203)"/>
<path d="M0 0 C2.15863095 3.54015475 3.01488512 5.55344637 2.875 9.75 C2 13 2 13 -1 15 C-3.1875 14.625 -3.1875 14.625 -5 14 C-4.01 13.67 -3.02 13.34 -2 13 C0.36692966 10.15173402 0.36692966 10.15173402 -0.375 6.8125 C-0.58125 5.884375 -0.7875 4.95625 -1 4 C-3.31 3.34 -5.62 2.68 -8 2 C-8 1.67 -8 1.34 -8 1 C-2.25 0 -2.25 0 0 0 Z " fill="#7ED8DB" transform="translate(346,189)"/>
<path d="M0 0 C1.485 0.99 1.485 0.99 3 2 C2.01 2 1.02 2 0 2 C0 3.98 0 5.96 0 8 C2.64 8 5.28 8 8 8 C8.33 6.68 8.66 5.36 9 4 C10.66666667 4 12.33333333 4 14 4 C13 7 13 7 9.8125 8.6875 C6.4590384 10.00814158 3.62175222 10.34492878 0 10 C-1 9 -1 9 -1.1328125 7.1875 C-1.13023437 6.465625 -1.12765625 5.74375 -1.125 5 C-1.12757813 4.278125 -1.13015625 3.55625 -1.1328125 2.8125 C-1 1 -1 1 0 0 Z " fill="#83DAE0" transform="translate(361,213)"/>
<path d="M0 0 C5.22588808 0.31672049 8.5609835 3.30110819 12 7 C14.08522962 10.48862226 14.08522962 10.48862226 13.625 13.25 C13.41875 13.8275 13.2125 14.405 13 15 C10.37613513 11.93882432 10 11.26826873 10 7 C8.68 6.67 7.36 6.34 6 6 C6 5.34 6 4.68 6 4 C5.34 4 4.68 4 4 4 C4 3.34 4 2.68 4 2 C2.68 1.34 1.36 0.68 0 0 Z " fill="#7ADBDD" transform="translate(86,173)"/>
<path d="M0 0 C0 0.66 0 1.32 0 2 C1.1446875 2.185625 1.1446875 2.185625 2.3125 2.375 C5 3 5 3 8 5 C6.37536158 5.05395478 4.75021459 5.09277195 3.125 5.125 C1.76761719 5.15980469 1.76761719 5.15980469 0.3828125 5.1953125 C-2 5 -2 5 -4 3 C-4.99 2.67 -5.98 2.34 -7 2 C-7 1.34 -7 0.68 -7 0 C-8.65 0 -10.3 0 -12 0 C-12 -0.33 -12 -0.66 -12 -1 C-7.48281619 -2.36884358 -4.41225737 -1.47075246 0 0 Z " fill="#A7FAF7" transform="translate(550,204)"/>
<path d="M0 0 C1.134375 0.020625 2.26875 0.04125 3.4375 0.0625 C3.4375 1.0525 3.4375 2.0425 3.4375 3.0625 C2.4475 3.3925 1.4575 3.7225 0.4375 4.0625 C0.4375 5.0525 0.4375 6.0425 0.4375 7.0625 C-1.2125 6.7325 -2.8625 6.4025 -4.5625 6.0625 C-4.605221 4.39638095 -4.60313832 2.72867115 -4.5625 1.0625 C-3.5625 0.0625 -3.5625 0.0625 0 0 Z " fill="#6ED5D9" transform="translate(573.5625,190.9375)"/>
<path d="M0 0 C0.33 0.99 0.66 1.98 1 3 C0.01 4.485 0.01 4.485 -1 6 C-1 4.68 -1 3.36 -1 2 C-3.31 2.33 -5.62 2.66 -8 3 C-8.28875 3.804375 -8.5775 4.60875 -8.875 5.4375 C-10 8 -10 8 -12 9 C-11.67815583 6.10340247 -11.38591512 3.68102669 -9.9375 1.125 C-6.73943927 -0.73193849 -3.64481003 -0.17925295 0 0 Z " fill="#85D8DE" transform="translate(388,182)"/>
<path d="M0 0 C1.42892578 0.12568359 1.42892578 0.12568359 2.88671875 0.25390625 C4.14097656 0.35574219 5.39523437 0.45757812 6.6875 0.5625 C7.92886719 0.66691406 9.17023438 0.77132812 10.44921875 0.87890625 C13.55835533 0.98493841 16.00810972 0.77228525 19 0 C17.90625 1.4765625 17.90625 1.4765625 16 3 C12.96875 3.3984375 12.96875 3.3984375 9.5 3.375 C7.78296875 3.38660156 7.78296875 3.38660156 6.03125 3.3984375 C3 3 3 3 1.09375 1.4765625 C0.7328125 0.98929688 0.371875 0.50203125 0 0 Z " fill="#7EDDE0" transform="translate(298,209)"/>
<path d="M0 0 C0.33 0 0.66 0 1 0 C1.55108142 5.51081416 0.09770294 9.51674303 -3 14 C-5.75 16 -5.75 16 -8 17 C-7.67 15.68 -7.34 14.36 -7 13 C-6.01 13 -5.02 13 -4 13 C-4 12.01 -4 11.02 -4 10 C-3.34 10 -2.68 10 -2 10 C-1.855625 9.278125 -1.71125 8.55625 -1.5625 7.8125 C-1.04166667 5.20833333 -0.52083333 2.60416667 0 0 Z " fill="#8ADCDF" transform="translate(100,188)"/>
<path d="M0 0 C1.3303125 0.02126953 1.3303125 0.02126953 2.6875 0.04296875 C4.0178125 0.05263672 4.0178125 0.05263672 5.375 0.0625 C7.6875 0.23046875 7.6875 0.23046875 9.6875 1.23046875 C9.6875 1.89046875 9.6875 2.55046875 9.6875 3.23046875 C2.7575 2.73546875 2.7575 2.73546875 -4.3125 2.23046875 C-2.3125 0.23046875 -2.3125 0.23046875 0 0 Z " fill="#72D6DD" transform="translate(336.3125,181.76953125)"/>
<path d="M0 0 C0.77321882 2.98241547 1.41196203 5.97580475 2 9 C1.01 8.01 0.02 7.02 -1 6 C-1.33 6.99 -1.66 7.98 -2 9 C-2.99 8.67 -3.98 8.34 -5 8 C-5 7.34 -5 6.68 -5 6 C-4.34 6 -3.68 6 -3 6 C-3.33 4.68 -3.66 3.36 -4 2 C-2.68 2 -1.36 2 0 2 C0 1.34 0 0.68 0 0 Z " fill="#91E6EE" transform="translate(577,192)"/>
<path d="M0 0 C1.98 0.99 1.98 0.99 4 2 C4 2.99 4 3.98 4 5 C4.639375 5.103125 5.27875 5.20625 5.9375 5.3125 C6.618125 5.539375 7.29875 5.76625 8 6 C8.33 6.99 8.66 7.98 9 9 C9.66 9.33 10.32 9.66 11 10 C7.10351684 9.42274324 4.8302055 7.68124732 2 5 C0.6875 2.25 0.6875 2.25 0 0 Z " fill="#91E0E6" transform="translate(325,202)"/>
<path d="M0 0 C0.33 1.32 0.66 2.64 1 4 C3.64 4.33 6.28 4.66 9 5 C8 7 8 7 6 9 C2.96101874 7.98700625 1.87860833 7.5048111 0 5 C-0.1875 2.3125 -0.1875 2.3125 0 0 Z " fill="#94E1E6" transform="translate(555,187)"/>
<path d="M0 0 C0.99 0.33 1.98 0.66 3 1 C4.2676439 3.73030993 4.04311598 4.87352646 3.0625 7.75 C2.711875 8.4925 2.36125 9.235 2 10 C1.34 9.67 0.68 9.34 0 9 C-0.44921875 7.1875 -0.44921875 7.1875 -0.6875 5 C-0.77386719 4.278125 -0.86023438 3.55625 -0.94921875 2.8125 C-0.96597656 2.214375 -0.98273438 1.61625 -1 1 C-0.67 0.67 -0.34 0.34 0 0 Z " fill="#57D8E4" transform="translate(68,180)"/>
<path d="M0 0 C2.5625 1.5 2.5625 1.5 4 3 C3.154375 2.814375 2.30875 2.62875 1.4375 2.4375 C-2.05578638 1.83453601 -2.05578638 1.83453601 -5.75 2.5625 C-6.8225 2.706875 -7.895 2.85125 -9 3 C-9.66 2.34 -10.32 1.68 -11 1 C-7.56928684 -0.71535658 -3.75941181 -0.4006478 0 0 Z " fill="#71D4D9" transform="translate(86,173)"/>
<path d="M0 0 C2.67927341 4.01891012 2.15601248 6.24161923 2 11 C1.01 11.495 1.01 11.495 0 12 C-0.19573608 10.56359829 -0.38127816 9.12580496 -0.5625 7.6875 C-0.66691406 6.88699219 -0.77132812 6.08648437 -0.87890625 5.26171875 C-1 3 -1 3 0 0 Z " fill="#EEEEEF" transform="translate(177,194)"/>
<path d="M0 0 C0.33 0 0.66 0 1 0 C1.08119503 2.24940295 1.13927819 4.49964871 1.1875 6.75 C1.22230469 8.00296875 1.25710938 9.2559375 1.29296875 10.546875 C0.98802939 14.14109357 0.45605371 15.44725126 -2 18 C-1.855625 17.071875 -1.71125 16.14375 -1.5625 15.1875 C-0.83635037 10.14594684 -0.4312193 5.07370796 0 0 Z " fill="#7AD5D9" transform="translate(321,190)"/>
<path d="M0 0 C0.33 0 0.66 0 1 0 C1.14285714 7.42857143 1.14285714 7.42857143 0 11 C-0.66 11 -1.32 11 -2 11 C-2.33 11.66 -2.66 12.32 -3 13 C-2.343621 8.51474352 -1.29925791 4.33085971 0 0 Z " fill="#84DBE2" transform="translate(36,169)"/>
<path d="M0 0 C1.13199353 0.9080162 2.25532363 1.82683826 3.375 2.75 C4.00148438 3.26046875 4.62796875 3.7709375 5.2734375 4.296875 C7.08312318 6.08199481 8.00117455 7.67949644 9 10 C7.68 9.34 6.36 8.68 5 8 C5 7.34 5 6.68 5 6 C4.360625 5.7525 3.72125 5.505 3.0625 5.25 C1 4 1 4 0.37109375 1.921875 C0.24863281 1.28765625 0.12617187 0.6534375 0 0 Z " fill="#F1F1F1" transform="translate(42,219)"/>
<path d="M0 0 C-3.33909037 2.22606025 -6.09914263 3.11033078 -10 4 C-12.22265625 3.55078125 -12.22265625 3.55078125 -14 3 C-12.42274653 2.29866401 -10.83788667 1.614417 -9.25 0.9375 C-7.92742187 0.36322266 -7.92742187 0.36322266 -6.578125 -0.22265625 C-3.84743691 -1.04600008 -2.63098653 -0.9773992 0 0 Z " fill="#8BDDE3" transform="translate(72,143)"/>
<path d="M0 0 C3.89985574 4.15984612 4.89169747 7.55084591 6 13 C3.01947605 10.44526518 1.53659812 7.58539561 0 4 C0 2.68 0 1.36 0 0 Z " fill="#F0F0F0" transform="translate(35,205)"/>
<path d="M0 0 C0 0.99 0 1.98 0 3 C-5.41538462 5.21538462 -5.41538462 5.21538462 -8.375 4.125 C-8.91125 3.75375 -9.4475 3.3825 -10 3 C-10 2.67 -10 2.34 -10 2 C-9.04287109 1.90912109 -9.04287109 1.90912109 -8.06640625 1.81640625 C-6.82697266 1.69072266 -6.82697266 1.69072266 -5.5625 1.5625 C-4.73878906 1.48128906 -3.91507812 1.40007812 -3.06640625 1.31640625 C-1.01337975 1.21069185 -1.01337975 1.21069185 0 0 Z " fill="#5BD0D4" transform="translate(312,201)"/>
<path d="M0 0 C2.97 0 5.94 0 9 0 C7.02 0.99 7.02 0.99 5 2 C4.13375 2.53625 3.2675 3.0725 2.375 3.625 C0 5 0 5 -2 5 C-2 4.34 -2 3.68 -2 3 C-1.34 3 -0.68 3 0 3 C0 2.01 0 1.02 0 0 Z " fill="#81DDE2" transform="translate(69,167)"/>
<path d="M0 0 C0.66 0.33 1.32 0.66 2 1 C-0.31 3.31 -2.62 5.62 -5 8 C-5.99 7.67 -6.98 7.34 -8 7 C-5.36 4.69 -2.72 2.38 0 0 Z " fill="#F1F1F1" transform="translate(115,224)"/>
<path d="M0 0 C0 0.66 0 1.32 0 2 C-1.32 2 -2.64 2 -4 2 C-4 3.32 -4 4.64 -4 6 C-4.66 6 -5.32 6 -6 6 C-6 5.34 -6 4.68 -6 4 C-6.99 3.67 -7.98 3.34 -9 3 C-2.25 0 -2.25 0 0 0 Z " fill="#F4F4F8" transform="translate(259,198)"/>
<path d="M0 0 C0.99 0.33 1.98 0.66 3 1 C2.67 2.32 2.34 3.64 2 5 C0.35 5.33 -1.3 5.66 -3 6 C-2 4 -1 2 0 0 Z " fill="#9FE6EC" transform="translate(541,194)"/>
<path d="M0 0 C0.99 0.33 1.98 0.66 3 1 C1.80100302 4.0831351 0.52299523 7.06279492 -1 10 C-2.27351308 7.45297384 -1.80191925 6.5717055 -1.0625 3.875 C-0.86785156 3.15054688 -0.67320313 2.42609375 -0.47265625 1.6796875 C-0.31667969 1.12539062 -0.16070312 0.57109375 0 0 Z " fill="#6FD7DE" transform="translate(60,175)"/>
<path d="M0 0 C3.7758544 0.52442422 6.22372155 1.32654667 9 4 C9 4.99 9 5.98 9 7 C8.01 6.67 7.02 6.34 6 6 C6 5.34 6 4.68 6 4 C5.34 4 4.68 4 4 4 C4 3.34 4 2.68 4 2 C2.68 1.34 1.36 0.68 0 0 Z " fill="#87D7DF" transform="translate(86,173)"/>
<path d="M0 0 C0.99 0 1.98 0 3 0 C2.39009109 3.55780196 1.4216319 6.6828589 0 10 C-1.2380014 6.42355152 -0.74926071 3.66305234 0 0 Z " fill="#7FDDDF" transform="translate(381,196)"/>
<path d="M0 0 C0.33 2.31 0.66 4.62 1 7 C0.443125 6.360625 -0.11375 5.72125 -0.6875 5.0625 C-3.22066561 2.80319013 -4.68341424 2.36850953 -8 2 C-8 1.67 -8 1.34 -8 1 C-2.25 0 -2.25 0 0 0 Z " fill="#91DFE6" transform="translate(346,189)"/>
<path d="M0 0 C0.33 0.66 0.66 1.32 1 2 C0.01 2.33 -0.98 2.66 -2 3 C-0.35 3.33 1.3 3.66 3 4 C3 4.33 3 4.66 3 5 C0.69 5 -1.62 5 -4 5 C-4 3.68 -4 2.36 -4 1 C-2.68 0.67 -1.36 0.34 0 0 Z " fill="#B7F4F3" transform="translate(519,207)"/>
<path d="M0 0 C2.64 0 5.28 0 8 0 C8.33 0.99 8.66 1.98 9 3 C8.01 4.485 8.01 4.485 7 6 C7 4.68 7 3.36 7 2 C4.69 1.67 2.38 1.34 0 1 C0 0.67 0 0.34 0 0 Z " fill="#9EE8EE" transform="translate(380,182)"/>
<path d="M0 0 C0.66 0.33 1.32 0.66 2 1 C0.35 2.65 -1.3 4.3 -3 6 C-3.99 5.67 -4.98 5.34 -6 5 C-4.06745228 2.9754262 -2.36841312 1.57894208 0 0 Z " fill="#7FD4DC" transform="translate(56,147)"/>
<path d="M0 0 C2.97 0 5.94 0 9 0 C9.33 0.66 9.66 1.32 10 2 C5.94568308 3.15837626 3.78187881 2.83691257 0 1 C0 0.67 0 0.34 0 0 Z " fill="#DBFFFF" transform="translate(522,205)"/>
<path d="" fill="#80FFFF" transform="translate(0,0)"/>
</svg>
